<svg width="24" height="24" viewBox="0 0 24 24" fill="none" xmlns="http://www.w3.org/2000/svg">
<rect x="1" y="1" width="22" height="22" rx="11" fill="white" style="fill:white;fill-opacity:1;"/>
<rect x="1" y="1" width="22" height="22" rx="11" stroke="#543C52" style="stroke:#543C52;stroke:color(display-p3 0.3294 0.2353 0.3216);stroke-opacity:1;" stroke-width="2"/>
<path d="M16.8681 12.8102H12.8117V16.8667C12.8117 17.0819 12.7262 17.2882 12.574 17.4404C12.4219 17.5925 12.2155 17.678 12.0004 17.678C11.7852 17.678 11.5788 17.5925 11.4267 17.4404C11.2745 17.2882 11.1891 17.0819 11.1891 16.8667V12.8102H7.13259C6.91742 12.8102 6.71106 12.7247 6.55891 12.5726C6.40676 12.4204 6.32129 12.2141 6.32129 11.9989C6.32129 11.7837 6.40676 11.5774 6.55891 11.4252C6.71106 11.2731 6.91742 11.1876 7.13259 11.1876H11.1891V7.13112C11.1891 6.91595 11.2745 6.70959 11.4267 6.55745C11.5788 6.4053 11.7852 6.31982 12.0004 6.31982C12.2155 6.31982 12.4219 6.4053 12.574 6.55745C12.7262 6.70959 12.8117 6.91595 12.8117 7.13112V11.1876H16.8681C17.0833 11.1876 17.2897 11.2731 17.4418 11.4252C17.594 11.5774 17.6794 11.7837 17.6794 11.9989C17.6794 12.2141 17.594 12.4204 17.4418 12.5726C17.2897 12.7247 17.0833 12.8102 16.8681 12.8102Z" fill="#543C52" style="fill:#543C52;fill:color(display-p3 0.3294 0.2353 0.3216);fill-opacity:1;"/>
</svg>
