<svg width="95" height="40" viewBox="0 0 95 40" fill="none" xmlns="http://www.w3.org/2000/svg">
<rect x="0.5" y="0.5" width="94" height="39" rx="19.5" stroke="#543C52" style="stroke:#543C52;stroke:color(display-p3 0.3294 0.2353 0.3216);stroke-opacity:1;"/>
<path d="M19.125 12.2275H24.125C24.363 12.2275 24.5915 12.3219 24.7598 12.4902C24.9281 12.6585 25.0225 12.887 25.0225 13.125C25.0225 13.363 24.9281 13.5915 24.7598 13.7598C24.5915 13.9281 24.363 14.0225 24.125 14.0225H20.0225V25.9775H24.125C24.363 25.9775 24.5915 26.0719 24.7598 26.2402C24.9281 26.4085 25.0225 26.637 25.0225 26.875C25.0225 27.113 24.9281 27.3415 24.7598 27.5098C24.5915 27.6781 24.363 27.7725 24.125 27.7725H19.125C18.887 27.7725 18.6585 27.6781 18.4902 27.5098C18.3219 27.3415 18.2275 27.113 18.2275 26.875V13.125C18.2275 12.887 18.3219 12.6585 18.4902 12.4902C18.6585 12.3219 18.887 12.2275 19.125 12.2275ZM29.749 15.9766C29.9875 15.9766 30.2161 16.0716 30.3848 16.2402L33.5098 19.3652C33.5933 19.4486 33.6598 19.5473 33.7051 19.6562C33.7503 19.7654 33.7735 19.8829 33.7734 20.001C33.7734 20.1189 33.7503 20.2358 33.7051 20.3447C33.6597 20.4537 33.5934 20.5534 33.5098 20.6367H33.5088L30.3838 23.7617C30.2152 23.9302 29.9864 24.0254 29.748 24.0254C29.5097 24.0253 29.2808 23.9302 29.1123 23.7617C28.9438 23.5932 28.8497 23.3643 28.8496 23.126C28.8496 22.8877 28.9439 22.6588 29.1123 22.4902L30.6377 20.9658L30.7061 20.8975H24.125C23.887 20.8975 23.6585 20.8031 23.4902 20.6348C23.3219 20.4665 23.2275 20.238 23.2275 20C23.2275 19.762 23.3219 19.5335 23.4902 19.3652C23.6585 19.1969 23.887 19.1025 24.125 19.1025H30.7061L30.6377 19.0342L29.1133 17.5117C28.9447 17.3431 28.8497 17.1144 28.8496 16.876C28.8496 16.6376 28.9448 16.4088 29.1133 16.2402C29.2819 16.0717 29.5106 15.9766 29.749 15.9766Z" fill="#543C52" stroke="#543C52" style="fill:#543C52;fill:color(display-p3 0.3294 0.2353 0.3216);fill-opacity:1;stroke:#543C52;stroke:color(display-p3 0.3294 0.2353 0.3216);stroke-opacity:1;" stroke-width="0.08"/>
<path d="M49.614 19.96C50.1833 20.016 50.6593 20.2493 51.042 20.66C51.434 21.0613 51.63 21.598 51.63 22.27C51.63 23.1193 51.35 23.7867 50.79 24.272C50.2393 24.7573 49.4787 25 48.508 25H45.05V15.2H48.326C49.306 15.2 50.076 15.4287 50.636 15.886C51.196 16.334 51.476 16.9547 51.476 17.748C51.476 18.98 50.8553 19.7173 49.614 19.96ZM48.256 16.614H46.66V19.302H48.256C48.76 19.302 49.152 19.1853 49.432 18.952C49.7213 18.7093 49.866 18.378 49.866 17.958C49.866 17.5287 49.726 17.1973 49.446 16.964C49.166 16.7307 48.7693 16.614 48.256 16.614ZM48.48 23.586C48.9653 23.586 49.3433 23.4553 49.614 23.194C49.8847 22.9327 50.02 22.5687 50.02 22.102C50.02 21.6913 49.88 21.36 49.6 21.108C49.32 20.8467 48.9513 20.716 48.494 20.716H46.66V23.586H48.48ZM57.5095 20.8L54.6115 24.454V25H53.0855V18.476H54.6115V22.746L57.5095 19.064V18.476H59.0355V25H57.5095V20.8ZM60.0775 25L62.4855 21.71L60.1195 18.476H62.0095L63.3675 20.59L64.7255 18.476H66.6155L64.2495 21.71L66.6575 25H64.7675L63.3675 22.816L61.9675 25H60.0775ZM69.2787 17.216C69.0641 17.4307 68.7934 17.538 68.4667 17.538C68.1401 17.538 67.8694 17.4307 67.6547 17.216C67.4401 16.992 67.3327 16.7213 67.3327 16.404C67.3327 16.0867 67.4401 15.8207 67.6547 15.606C67.8694 15.382 68.1401 15.27 68.4667 15.27C68.7934 15.27 69.0641 15.382 69.2787 15.606C69.4934 15.8207 69.6007 16.0867 69.6007 16.404C69.6007 16.7213 69.4934 16.992 69.2787 17.216ZM67.6967 25V18.476H69.2227V25H67.6967ZM76.8951 23.558H77.6511V26.68H76.1251V25H72.0091V26.68H70.3991V23.558H71.0711C71.4351 23.3247 71.6171 22.8393 71.6171 22.102V18.476H76.8951V23.558ZM72.6951 23.74H75.3691V19.736H73.1431V22.032C73.1431 22.6947 72.9937 23.264 72.6951 23.74Z" fill="#543C52" style="fill:#543C52;fill:color(display-p3 0.3294 0.2353 0.3216);fill-opacity:1;"/>
</svg>
