<svg width="173" height="40" viewBox="0 0 173 40" fill="none" xmlns="http://www.w3.org/2000/svg">
<rect x="0.5" y="0.5" width="172" height="39" rx="19.5" fill="white" style="fill:white;fill-opacity:1;"/>
<rect x="0.5" y="0.5" width="172" height="39" rx="19.5" stroke="#543C52" style="stroke:#543C52;stroke:color(display-p3 0.3294 0.2353 0.3216);stroke-opacity:1;"/>
<path d="M14.1667 25.8333H15.3542L23.5 17.6875L22.3125 16.5L14.1667 24.6458V25.8333ZM12.5 27.5V23.9583L23.5 12.9792C23.6667 12.8264 23.8508 12.7083 24.0525 12.625C24.2542 12.5417 24.4658 12.5 24.6875 12.5C24.9092 12.5 25.1244 12.5417 25.3333 12.625C25.5422 12.7083 25.7228 12.8333 25.875 13L27.0208 14.1667C27.1875 14.3194 27.3092 14.5 27.3858 14.7083C27.4625 14.9167 27.5006 15.125 27.5 15.3333C27.5 15.5556 27.4619 15.7675 27.3858 15.9692C27.3097 16.1708 27.1881 16.3547 27.0208 16.5208L16.0417 27.5H12.5ZM22.8958 17.1042L22.3125 16.5L23.5 17.6875L22.8958 17.1042Z" fill="#543C52" style="fill:#543C52;fill:color(display-p3 0.3294 0.2353 0.3216);fill-opacity:1;"/>
<path d="M44.662 15.2C45.642 15.2 46.4447 15.522 47.07 16.166C47.7047 16.81 48.022 17.6313 48.022 18.63C48.022 19.6287 47.7047 20.45 47.07 21.094C46.4447 21.738 45.642 22.06 44.662 22.06H42.66V25H41.05V15.2H44.662ZM44.564 20.618C45.096 20.618 45.5347 20.4313 45.88 20.058C46.2347 19.6753 46.412 19.1993 46.412 18.63C46.412 18.0607 46.2347 17.5893 45.88 17.216C45.5347 16.8333 45.096 16.642 44.564 16.642H42.66V20.618H44.564ZM54.9661 21.402C54.9661 21.57 54.9521 21.85 54.9241 22.242H50.0801C50.0988 22.7553 50.2668 23.152 50.5841 23.432C50.9014 23.7027 51.3401 23.838 51.9001 23.838C52.6188 23.838 53.1041 23.5907 53.3561 23.096H54.8961C54.7934 23.7027 54.4621 24.202 53.9021 24.594C53.3514 24.9767 52.6841 25.168 51.9001 25.168C50.8734 25.168 50.0614 24.86 49.4641 24.244C48.8668 23.628 48.5681 22.7927 48.5681 21.738C48.5681 20.6927 48.8621 19.862 49.4501 19.246C50.0474 18.6207 50.8454 18.308 51.8441 18.308C52.7774 18.308 53.5288 18.5973 54.0981 19.176C54.6768 19.7453 54.9661 20.4873 54.9661 21.402ZM50.0801 21.08H53.4681C53.4588 20.576 53.3094 20.1887 53.0201 19.918C52.7401 19.6473 52.3388 19.512 51.8161 19.512C51.2841 19.512 50.8641 19.6567 50.5561 19.946C50.2481 20.2353 50.0894 20.6133 50.0801 21.08ZM61.8795 23.558H62.6355V26.68H61.1095V25H56.9935V26.68H55.3835V23.558H56.0555C56.4195 23.3247 56.6015 22.8393 56.6015 22.102V18.476H61.8795V23.558ZM57.6795 23.74H60.3535V19.736H58.1275V22.032C58.1275 22.6947 57.9782 23.264 57.6795 23.74ZM66.6725 25.168C65.6552 25.168 64.8665 24.846 64.3065 24.202C63.7465 23.558 63.4665 22.7367 63.4665 21.738C63.4665 20.7487 63.7605 19.932 64.3485 19.288C64.9365 18.6347 65.7252 18.308 66.7145 18.308C67.1532 18.308 67.5545 18.4013 67.9185 18.588C68.2825 18.7747 68.5625 19.0313 68.7585 19.358V18.476H70.2845V25H68.7585V24.118C68.5718 24.4353 68.2778 24.692 67.8765 24.888C67.4845 25.0747 67.0832 25.168 66.6725 25.168ZM66.8965 23.81C67.5218 23.81 67.9978 23.614 68.3245 23.222C68.6605 22.83 68.8285 22.3353 68.8285 21.738C68.8285 21.1407 68.6605 20.646 68.3245 20.254C67.9978 19.862 67.5218 19.666 66.8965 19.666C66.3085 19.666 65.8418 19.862 65.4965 20.254C65.1605 20.6367 64.9925 21.1313 64.9925 21.738C64.9925 22.3447 65.1605 22.844 65.4965 23.236C65.8418 23.6187 66.3085 23.81 66.8965 23.81ZM76.1617 18.476V19.89H73.6837V25H72.1577V18.476H76.1617ZM81.7753 18.476H83.3013V25.028C83.3013 26.0267 83.0167 26.8013 82.4473 27.352C81.8967 27.856 81.1593 28.108 80.2353 28.108C79.274 28.108 78.5273 27.884 77.9953 27.436C77.5287 27.0253 77.286 26.4607 77.2673 25.742H78.8073C78.8447 26.1153 78.966 26.3907 79.1713 26.568C79.386 26.7547 79.7313 26.848 80.2073 26.848C80.6927 26.848 81.0753 26.6893 81.3553 26.372C81.6353 26.064 81.7753 25.5787 81.7753 24.916V24.09C81.3553 24.8087 80.6553 25.168 79.6753 25.168C78.9007 25.168 78.3033 24.9207 77.8833 24.426C77.4727 23.922 77.2673 23.264 77.2673 22.452V18.476H78.7933V22.13C78.7933 23.2593 79.2647 23.824 80.2073 23.824C80.7207 23.824 81.108 23.642 81.3693 23.278C81.64 22.914 81.7753 22.438 81.7753 21.85V18.476ZM85.183 18.476H88.179C88.6177 18.476 88.9864 18.532 89.285 18.644C89.593 18.756 89.817 18.91 89.957 19.106C90.097 19.2927 90.195 19.4747 90.251 19.652C90.307 19.82 90.335 20.002 90.335 20.198C90.335 20.5807 90.1857 20.9073 89.887 21.178C89.5884 21.4487 89.2337 21.598 88.823 21.626C89.271 21.6447 89.6537 21.794 89.971 22.074C90.2977 22.3447 90.461 22.718 90.461 23.194C90.461 23.3807 90.4237 23.5673 90.349 23.754C90.2837 23.9407 90.1717 24.1367 90.013 24.342C89.8544 24.538 89.607 24.6967 89.271 24.818C88.9444 24.9393 88.5477 25 88.081 25H85.183V18.476ZM88.053 21.15C88.277 21.15 88.459 21.0753 88.599 20.926C88.739 20.7673 88.809 20.576 88.809 20.352C88.809 20.1187 88.739 19.9273 88.599 19.778C88.459 19.6193 88.277 19.54 88.053 19.54H86.667V21.15H88.053ZM86.667 22.214V23.936H88.109C88.3424 23.936 88.5384 23.852 88.697 23.684C88.8557 23.516 88.935 23.3153 88.935 23.082C88.935 22.8487 88.8557 22.648 88.697 22.48C88.5384 22.3027 88.3424 22.214 88.109 22.214H86.667ZM94.6373 25.168C93.62 25.168 92.8313 24.846 92.2713 24.202C91.7113 23.558 91.4313 22.7367 91.4313 21.738C91.4313 20.7487 91.7253 19.932 92.3133 19.288C92.9013 18.6347 93.69 18.308 94.6793 18.308C95.118 18.308 95.5193 18.4013 95.8833 18.588C96.2473 18.7747 96.5273 19.0313 96.7233 19.358V18.476H98.2493V25H96.7233V24.118C96.5366 24.4353 96.2426 24.692 95.8413 24.888C95.4493 25.0747 95.048 25.168 94.6373 25.168ZM94.8613 23.81C95.4866 23.81 95.9626 23.614 96.2893 23.222C96.6253 22.83 96.7933 22.3353 96.7933 21.738C96.7933 21.1407 96.6253 20.646 96.2893 20.254C95.9626 19.862 95.4866 19.666 94.8613 19.666C94.2733 19.666 93.8066 19.862 93.4613 20.254C93.1253 20.6367 92.9573 21.1313 92.9573 21.738C92.9573 22.3447 93.1253 22.844 93.4613 23.236C93.8066 23.6187 94.2733 23.81 94.8613 23.81ZM104.84 18.476V19.89H102.95V25H101.424V19.89H99.5625V18.476H104.84ZM110.574 20.8L107.676 24.454V25H106.15V18.476H107.676V22.746L110.574 19.064V18.476H112.1V25H110.574V20.8ZM123.292 25H121.766V19.75H118.924V25H117.398V18.476H123.292V25ZM127.877 25.168C126.86 25.168 126.071 24.846 125.511 24.202C124.951 23.558 124.671 22.7367 124.671 21.738C124.671 20.7487 124.965 19.932 125.553 19.288C126.141 18.6347 126.93 18.308 127.919 18.308C128.358 18.308 128.759 18.4013 129.123 18.588C129.487 18.7747 129.767 19.0313 129.963 19.358V18.476H131.489V25H129.963V24.118C129.777 24.4353 129.483 24.692 129.081 24.888C128.689 25.0747 128.288 25.168 127.877 25.168ZM128.101 23.81C128.727 23.81 129.203 23.614 129.529 23.222C129.865 22.83 130.033 22.3353 130.033 21.738C130.033 21.1407 129.865 20.646 129.529 20.254C129.203 19.862 128.727 19.666 128.101 19.666C127.513 19.666 127.047 19.862 126.701 20.254C126.365 20.6367 126.197 21.1313 126.197 21.738C126.197 22.3447 126.365 22.844 126.701 23.236C127.047 23.6187 127.513 23.81 128.101 23.81ZM137.073 18.308C138.006 18.308 138.757 18.6253 139.327 19.26C139.896 19.8853 140.181 20.7113 140.181 21.738C140.181 22.746 139.882 23.572 139.285 24.216C138.687 24.8507 137.917 25.168 136.975 25.168C136.545 25.168 136.139 25.0747 135.757 24.888C135.374 24.692 135.085 24.4353 134.889 24.118V27.94H133.363V18.476H134.889V19.358C135.085 19.0407 135.383 18.7887 135.785 18.602C136.186 18.406 136.615 18.308 137.073 18.308ZM136.751 23.81C137.311 23.81 137.768 23.6187 138.123 23.236C138.477 22.844 138.655 22.3447 138.655 21.738C138.655 21.1313 138.477 20.6367 138.123 20.254C137.768 19.862 137.311 19.666 136.751 19.666C136.172 19.666 135.705 19.8573 135.351 20.24C134.996 20.6227 134.819 21.122 134.819 21.738C134.819 22.354 134.996 22.8533 135.351 23.236C135.705 23.6187 136.172 23.81 136.751 23.81ZM147.024 24.202C146.408 24.846 145.572 25.168 144.518 25.168C143.463 25.168 142.623 24.846 141.998 24.202C141.382 23.5487 141.074 22.7273 141.074 21.738C141.074 20.7487 141.382 19.932 141.998 19.288C142.623 18.6347 143.463 18.308 144.518 18.308C145.572 18.308 146.408 18.6347 147.024 19.288C147.649 19.932 147.962 20.7487 147.962 21.738C147.962 22.7273 147.649 23.5487 147.024 24.202ZM143.104 23.236C143.449 23.6187 143.92 23.81 144.518 23.81C145.115 23.81 145.582 23.6187 145.918 23.236C146.263 22.8533 146.436 22.354 146.436 21.738C146.436 21.122 146.263 20.6227 145.918 20.24C145.582 19.8573 145.115 19.666 144.518 19.666C143.92 19.666 143.449 19.8573 143.104 20.24C142.768 20.6227 142.6 21.122 142.6 21.738C142.6 22.354 142.768 22.8533 143.104 23.236ZM148.644 23.628H148.896C149.578 23.628 149.918 23.1567 149.918 22.214V18.476H155.028V25H153.502V19.89H151.444V22.144C151.444 23.0493 151.248 23.7633 150.856 24.286C150.464 24.8087 149.914 25.07 149.204 25.07H148.644V23.628ZM156.9 18.476H158.426V20.576H159.924C160.67 20.576 161.263 20.7907 161.702 21.22C162.15 21.64 162.374 22.1627 162.374 22.788C162.374 23.3947 162.14 23.9173 161.674 24.356C161.216 24.7853 160.633 25 159.924 25H156.9V18.476ZM158.426 21.78V23.796H159.742C160.078 23.796 160.334 23.7073 160.512 23.53C160.689 23.3433 160.778 23.096 160.778 22.788C160.778 22.48 160.689 22.2373 160.512 22.06C160.334 21.8733 160.078 21.78 159.742 21.78H158.426Z" fill="#543C52" style="fill:#543C52;fill:color(display-p3 0.3294 0.2353 0.3216);fill-opacity:1;"/>
</svg>
