<svg width="40" height="40" viewBox="0 0 40 40" fill="none" xmlns="http://www.w3.org/2000/svg">
<rect x="0.5" y="0.5" width="39" height="39" rx="19.5" fill="white" style="fill:white;fill-opacity:1;"/>
<rect x="0.5" y="0.5" width="39" height="39" rx="19.5" stroke="#543C52" style="stroke:#543C52;stroke:color(display-p3 0.3294 0.2353 0.3216);stroke-opacity:1;"/>
<path d="M13.334 15.8333H26.6673M18.334 19.1667V24.1667M21.6673 19.1667V24.1667M14.1673 15.8333L15.0007 25.8333C15.0007 26.2754 15.1762 26.6993 15.4888 27.0118C15.8014 27.3244 16.2253 27.5 16.6673 27.5H23.334C23.776 27.5 24.1999 27.3244 24.5125 27.0118C24.8251 26.6993 25.0007 26.2754 25.0007 25.8333L25.834 15.8333M17.5007 15.8333V13.3333C17.5007 13.1123 17.5884 12.9004 17.7447 12.7441C17.901 12.5878 18.113 12.5 18.334 12.5H21.6673C21.8883 12.5 22.1003 12.5878 22.2566 12.7441C22.4129 12.9004 22.5007 13.1123 22.5007 13.3333V15.8333" stroke="#543C52" style="stroke:#543C52;stroke:color(display-p3 0.3294 0.2353 0.3216);stroke-opacity:1;" stroke-width="1.66667" stroke-linecap="round" stroke-linejoin="round"/>
</svg>
